<svg xmlns="http://www.w3.org/2000/svg" viewBox="0 0 75.75 75.75">
  <g id="fd083b7c-5949-4396-8cd3-748958b89deb" data-name="Layer 2">
    <g id="abf1ba62-2f13-4cb9-a1dd-636ddafdf177" data-name="レイヤー 8">
      <path d="M0,2.81V1.63A3.36,3.36,0,0,1,1.63,0H10.5a2.6,2.6,0,0,1,1.76,2.17c.28,2.05.61,4.09.92,6.13s.61,3.93.93,5.95H68c3,0,5.41,1.05,6.88,3.76a16.7,16.7,0,0,1,.89,2.55v1.93a1.4,1.4,0,0,0-.13.34q-1.71,11.22-3.44,22.42a34.72,34.72,0,0,1-1,5.21,9.21,9.21,0,0,1-9.08,6.26H20.73a4.93,4.93,0,0,0,5.11,5.08H66.51a4.55,4.55,0,0,1,1.17.09,2.19,2.19,0,0,1,1.56,2.39,2.21,2.21,0,0,1-2.17,1.94c-1,0-2,0-3,0,.08.29.13.5.19.72a6.9,6.9,0,0,1-3.55,8,17.57,17.57,0,0,1-2.28.8H56.51c-.29-.1-.59-.21-.89-.29a6.88,6.88,0,0,1-5-6,24.25,24.25,0,0,1,.2-3.18H35.56c.08.26.13.44.18.63a6.94,6.94,0,0,1-3.58,8,21.54,21.54,0,0,1-2.13.77H28.11a3,3,0,0,0-.42-.14,7,7,0,0,1-5.54-5.73,7.33,7.33,0,0,1,.53-4.07c-.26-.11-.48-.2-.7-.31a9.27,9.27,0,0,1-5.53-6.84c-.32-1.64-.52-3.31-.77-5q-1.52-9.83-3-19.64T9.61,14.28L8.1,4.44c-1.73,0-3.43-.06-5.12,0A2.78,2.78,0,0,1,0,2.81ZM31.51,18.75H14.79L17,33.24H31.51Zm23.57-.06V33.26H69.5c0-.23.11-.44.15-.66.54-3.52,1.09-7,1.61-10.58a3.34,3.34,0,0,0,0-1.18c-.3-1.41-1.36-2.14-3.1-2.15-4,0-8,0-12,0ZM36,33.22H50.53V18.75H36Zm14.5,19V37.78H36V52.24Zm-19,0V37.76H17.78a3.67,3.67,0,0,0,0,.47q1,6.72,2.06,13.43c.07.5.27.64.76.64,3.4,0,6.8,0,10.21,0C31,52.29,31.24,52.26,31.49,52.25ZM55.08,37.76V52.25c2.68,0,5.29.07,7.89,0a4.67,4.67,0,0,0,4.19-3.71c.35-1.88.6-3.79.9-5.68.26-1.68.52-3.35.78-5.08ZM29,66.26a2.5,2.5,0,0,0-2.51,2.53A2.55,2.55,0,0,0,29,71.31a2.53,2.53,0,0,0,2.51-2.55A2.48,2.48,0,0,0,29,66.26Zm28.53,0A2.5,2.5,0,0,0,55,68.79a2.53,2.53,0,1,0,2.51-2.54Z" style="fill: #fff"/>
    </g>
  </g>
</svg>
