<?xml version="1.0" encoding="UTF-8"?><svg xmlns="http://www.w3.org/2000/svg" viewBox="0 0 72.84 55.48"><defs><style>.d{fill:#fff;}</style></defs><g id="a"/><g id="b"><g id="c"><path class="d" d="M72.84,6.4c0-3.52-2.86-6.4-6.4-6.4H6.4C2.88,0,0,2.87,0,6.4V49.08c0,3.52,2.86,6.4,6.4,6.4h60.04c3.52,0,6.4-2.86,6.4-6.4V6.4ZM4.27,7.27L24.82,27.64,4.27,48.2V7.27Zm32.29,26L7.31,4.27h58.25l-29,29Zm-8.7-2.62l7.21,7.14c.83,.83,2.18,.82,3.01,0l7.03-7.03,20.46,20.46H7.29L27.85,30.65Zm20.26-2.91L68.57,7.29V48.2l-20.46-20.46Z"/></g></g></svg>