<?xml version="1.0" standalone="no"?>
<!DOCTYPE svg PUBLIC "-//W3C//DTD SVG 20010904//EN"
 "http://www.w3.org/TR/2001/REC-SVG-20010904/DTD/svg10.dtd">
<svg version="1.0" xmlns="http://www.w3.org/2000/svg"
 width="512.000000pt" height="512.000000pt" viewBox="0 0 512.000000 512.000000"
 preserveAspectRatio="xMidYMid meet">
<metadata>
Created by potrace 1.14, written by Peter Selinger 2001-2017
</metadata>
<g transform="translate(0.000000,512.000000) scale(0.100000,-0.100000)"
fill="#000000" stroke="none">
<path d="M4214 3921 c-80 -56 -155 -136 -237 -250 -32 -45 -61 -80 -65 -77
-10 6 -170 -10 -236 -24 -49 -10 -56 -14 -56 -35 0 -13 6 -25 13 -28 6 -2 80
-2 164 1 126 4 163 2 215 -13 86 -24 115 -40 133 -75 9 -17 20 -30 26 -30 17
0 109 -44 109 -52 0 -4 19 -17 43 -29 104 -54 168 -136 217 -285 17 -51 38
-98 46 -104 16 -14 78 -11 254 14 144 20 160 24 160 38 0 21 -35 37 -80 38
-25 0 -94 -10 -154 -22 -75 -15 -113 -18 -124 -11 -17 10 -45 114 -34 125 4 4
77 37 162 74 85 36 159 70 164 75 13 12 -13 39 -38 39 -31 0 -131 -34 -206
-69 -110 -51 -114 -51 -150 8 -17 28 -44 60 -60 71 -51 36 -188 99 -230 106
-45 7 -48 10 -83 64 -19 29 -88 75 -137 92 -20 6 102 204 165 269 29 30 67 62
84 72 29 17 30 17 41 -3 29 -54 52 -180 56 -310 6 -172 8 -180 39 -180 34 0
45 27 45 112 0 124 -33 269 -91 406 -16 38 -22 42 -52 42 -24 0 -53 -14 -103
-49z"/>
<path d="M1042 3894 c-71 -19 -333 -147 -405 -198 -92 -64 -278 -238 -275
-255 2 -12 22 -18 68 -24 53 -7 84 -4 167 15 86 19 104 27 113 47 6 13 8 26 5
29 -3 3 -46 0 -97 -6 -51 -6 -94 -9 -97 -6 -15 15 282 214 318 214 6 0 40 13
74 29 62 29 203 61 268 61 46 0 77 -23 100 -77 26 -61 61 -105 104 -127 31
-17 38 -18 46 -5 11 18 8 26 -44 119 -23 41 -67 100 -97 131 -47 48 -62 57
-104 62 -65 9 -82 8 -144 -9z"/>
<path d="M3296 3743 c-10 -62 -5 -225 8 -268 11 -36 15 -40 42 -37 45 5 49 15
36 85 -7 36 -12 93 -12 129 0 86 -15 128 -45 128 -18 0 -24 -7 -29 -37z"/>
<path d="M3557 3732 c-27 -30 -90 -174 -94 -217 -3 -27 1 -47 11 -60 16 -20
16 -20 31 -1 8 11 15 32 15 46 0 14 4 30 8 35 5 6 17 33 27 60 9 28 28 69 42
93 13 23 21 47 18 52 -10 16 -40 12 -58 -8z"/>
<path d="M1904 3633 c-4 -10 -22 -54 -41 -98 -19 -44 -37 -89 -40 -100 -2 -11
-13 -36 -23 -55 -24 -47 -34 -161 -16 -186 12 -15 16 -16 30 -5 9 7 16 24 16
38 0 13 22 82 49 152 37 97 50 145 53 196 2 48 -1 69 -9 72 -7 3 -16 -4 -19
-14z"/>
<path d="M2500 3558 c0 -29 7 -80 15 -114 8 -33 12 -69 9 -80 -5 -18 4 -47 60
-198 13 -37 50 -108 80 -155 30 -48 58 -94 61 -103 3 -8 17 -20 31 -27 13 -6
29 -23 34 -37 6 -15 20 -40 31 -56 18 -24 27 -29 58 -26 49 4 46 23 -27 133
-126 193 -244 433 -266 545 -8 41 -12 78 -8 81 11 11 202 -10 252 -27 25 -8
119 -55 210 -103 l165 -89 22 20 c25 23 25 51 0 108 -8 19 -18 58 -22 85 -9
70 -11 74 -34 68 -18 -5 -21 -13 -21 -69 0 -35 -3 -64 -6 -64 -3 0 -23 13 -43
29 -23 18 -72 38 -136 56 -55 15 -132 38 -172 51 -58 19 -93 24 -182 24 l-111
0 0 -52z"/>
<path d="M1020 3566 c-103 -38 -220 -113 -220 -141 0 -27 31 -22 116 20 l89
44 155 -4 c149 -4 201 -12 214 -34 4 -6 39 -20 79 -32 39 -12 83 -30 96 -40
13 -11 29 -19 36 -19 7 0 37 -25 67 -56 69 -71 82 -67 74 25 -8 81 -36 211
-49 229 -20 26 -26 9 -29 -78 l-3 -90 -50 40 c-146 115 -247 150 -425 149 -68
0 -129 -6 -150 -13z"/>
<path d="M2854 3389 c-9 -14 77 -101 145 -147 30 -21 56 -42 58 -49 3 -7 -17
-33 -42 -58 -39 -37 -46 -50 -41 -70 4 -17 13 -25 29 -25 27 0 122 65 150 102
20 27 20 29 4 63 -11 23 -37 48 -77 73 -211 132 -212 132 -226 111z"/>
<path d="M817 3371 c-33 -11 -157 -105 -211 -160 -56 -58 -28 -86 38 -36 67
51 227 118 311 129 77 11 80 12 83 39 3 25 0 27 -30 27 -18 0 -62 2 -98 5 -36
2 -78 0 -93 -4z"/>
<path d="M4093 3333 c-17 -6 -16 -47 1 -81 22 -42 52 -65 75 -57 17 5 21 15
21 53 0 75 -39 109 -97 85z"/>
<path d="M2065 3280 c-115 -23 -249 -102 -243 -143 4 -32 58 -35 99 -7 53 38
112 66 189 89 41 12 86 30 100 39 l25 16 -30 7 c-40 9 -92 8 -140 -1z"/>
<path d="M3630 3220 c-31 -31 -27 -90 9 -129 33 -35 52 -39 76 -15 30 30 0
130 -46 155 -14 7 -23 5 -39 -11z"/>
<path d="M842 3200 c-27 -11 -56 -73 -47 -101 10 -30 49 -23 90 15 28 27 36
41 33 63 -2 22 -9 28 -28 30 -14 1 -35 -2 -48 -7z"/>
<path d="M312 3083 c-110 -52 -186 -217 -186 -408 -1 -99 0 -101 46 -196 65
-133 119 -181 224 -199 85 -15 195 -8 297 17 48 12 75 14 95 7 25 -9 27 -14
30 -70 l3 -61 -41 -17 c-22 -9 -64 -16 -93 -16 -113 0 -167 -39 -167 -122 0
-31 7 -43 51 -82 60 -54 147 -85 254 -91 38 -2 71 -8 73 -14 2 -5 -15 -46 -37
-90 -42 -82 -49 -118 -31 -152 14 -25 42 -24 68 4 27 29 92 171 101 221 6 36
10 40 51 52 25 8 59 14 75 14 17 0 39 6 50 13 11 8 36 17 55 21 51 10 80 42
80 88 0 21 -5 38 -11 38 -6 0 -52 -20 -103 -45 -114 -55 -188 -75 -286 -76
-110 -2 -255 28 -284 59 -32 36 1 63 89 76 149 22 159 26 290 146 84 77 103
100 122 148 30 78 29 123 -2 160 -37 44 -89 66 -142 58 -59 -8 -147 -51 -167
-81 -25 -38 -146 -114 -207 -130 -73 -20 -121 -19 -203 5 -84 24 -113 49 -156
138 -41 83 -47 137 -26 243 27 141 21 129 70 129 56 0 80 -24 42 -41 -33 -16
-33 -42 1 -68 42 -34 72 -37 119 -12 59 32 91 69 105 122 15 54 8 87 -27 129
-15 17 -24 33 -22 36 3 2 25 -2 49 -10 24 -7 68 -19 98 -26 32 -8 67 -24 88
-43 31 -27 36 -29 50 -14 14 14 14 19 -10 59 -22 38 -33 46 -94 66 -103 34
-150 42 -243 41 -69 -1 -95 -5 -138 -26z m181 -126 c17 -22 18 -29 7 -42 -21
-25 -49 -18 -64 18 -12 28 -12 34 2 45 21 16 31 12 55 -21z"/>
<path d="M2017 3094 c-83 -20 -100 -30 -87 -54 19 -35 48 -44 94 -27 57 21
202 28 246 12 19 -7 52 -16 73 -19 69 -9 85 -48 132 -307 33 -188 48 -219 100
-219 14 0 14 2 -1 25 -9 14 -13 32 -9 42 3 10 9 51 11 92 4 62 0 91 -27 180
-26 89 -40 118 -86 178 -82 108 -93 113 -254 112 -78 0 -158 -7 -192 -15z"/>
<path d="M1276 3059 c-43 -51 -49 -111 -11 -117 12 -2 36 11 58 31 43 40 49
78 15 101 -30 21 -32 21 -62 -15z"/>
<path d="M4220 3036 c-36 -13 -101 -35 -145 -48 -44 -14 -84 -33 -89 -41 -25
-40 47 -95 153 -118 53 -11 59 -19 81 -106 11 -43 11 -60 1 -95 -18 -58 -56
-122 -93 -153 -36 -30 -98 -33 -187 -9 -73 21 -124 13 -163 -26 -47 -47 -32
-101 45 -164 63 -51 142 -76 244 -76 93 0 122 9 224 71 71 43 99 43 99 2 0
-37 -24 -76 -79 -125 -49 -44 -95 -65 -222 -103 -134 -40 -185 -90 -244 -234
-33 -83 -28 -126 14 -126 24 0 31 11 45 76 7 34 71 111 122 148 21 16 66 37
99 46 63 19 144 56 166 77 8 7 30 25 49 39 20 15 55 52 79 83 36 46 44 64 48
113 4 50 2 62 -18 87 -22 28 -24 28 -90 22 -64 -7 -68 -6 -88 20 -28 35 -27
73 4 140 l25 54 42 -22 c64 -33 134 -31 182 5 33 25 108 112 118 135 3 9 226
-1 270 -13 42 -11 62 0 48 26 -17 31 -67 48 -161 54 -118 9 -128 12 -135 40
-8 33 -40 51 -60 34 -8 -6 -14 -16 -14 -21 0 -5 -10 -32 -21 -59 -29 -67 -128
-151 -172 -147 -27 3 -36 12 -69 74 -21 39 -41 92 -44 117 -6 43 -4 50 30 91
48 59 56 99 26 131 -28 30 -37 30 -120 1z m-124 -121 c-7 -18 -47 -17 -53 1
-5 14 39 34 51 24 5 -5 6 -16 2 -25z"/>
<path d="M1872 2883 c-57 -73 -64 -97 -56 -181 4 -43 13 -95 20 -116 9 -24 12
-57 8 -85 -4 -36 0 -63 21 -121 15 -41 31 -79 35 -85 6 -8 40 -110 40 -121 0
-2 -15 -1 -32 2 -55 8 -77 -13 -111 -101 -27 -74 -30 -90 -31 -220 l-1 -140
59 -170 c32 -93 68 -186 80 -205 11 -19 26 -53 31 -75 10 -40 10 -40 63 -43
28 -2 52 -1 52 2 0 3 -6 20 -14 38 -8 18 -18 49 -21 69 -3 21 -21 66 -39 100
-41 77 -92 219 -101 280 -11 76 11 241 46 329 33 86 49 101 49 46 0 -49 16
-86 52 -118 32 -28 62 -36 73 -18 11 18 -44 197 -94 300 -47 99 -49 105 -31
112 28 10 25 39 -11 144 -32 94 -35 128 -24 280 11 140 -7 167 -63 97z"/>
<path d="M3369 2865 c-3 -2 -62 -16 -131 -30 -69 -13 -164 -38 -210 -54 -45
-17 -114 -37 -153 -47 -78 -18 -231 -88 -239 -110 -3 -7 1 -20 9 -28 13 -12
22 -12 72 4 32 10 81 28 108 39 28 11 84 30 125 42 41 12 93 27 115 34 22 7
96 25 165 40 152 33 210 54 210 76 0 21 -57 48 -71 34z"/>
<path d="M3605 2764 c-33 -14 -69 -29 -80 -34 -11 -5 -36 -12 -55 -15 -30 -6
-119 -49 -260 -128 -19 -10 -53 -32 -75 -49 -22 -16 -107 -72 -190 -124 -185
-117 -240 -167 -206 -188 21 -13 81 19 236 124 33 22 101 64 150 94 50 29 126
74 170 100 44 26 103 56 130 66 137 50 280 117 283 132 3 15 -22 48 -36 48 -4
-1 -34 -12 -67 -26z"/>
<path d="M2391 2741 c-17 -11 -23 -132 -9 -183 9 -30 8 -46 -5 -80 -9 -24 -23
-74 -32 -113 -16 -72 -111 -272 -163 -344 -57 -78 -78 -181 -38 -181 33 0 226
304 284 449 41 100 42 106 42 220 0 64 -5 132 -10 151 -14 48 -51 92 -69 81z"/>
<path d="M2904 2629 c-6 -11 2 -111 13 -156 4 -16 13 -23 30 -23 l24 0 -6 83
c-4 45 -8 88 -10 95 -5 15 -41 16 -51 1z"/>
<path d="M3579 2567 c-134 -67 -306 -187 -389 -271 -88 -89 -100 -110 -78
-133 15 -14 24 -8 106 69 88 84 158 131 382 258 98 56 115 69 115 90 0 40 -39
36 -136 -13z"/>
<path d="M2953 2304 c-3 -9 4 -66 16 -127 12 -62 21 -136 19 -166 -3 -52 -5
-55 -34 -63 -25 -6 -35 -17 -47 -50 -32 -85 -31 -94 1 -123 37 -33 33 -52 -32
-129 -23 -28 -71 -96 -105 -152 -34 -55 -91 -135 -127 -178 -35 -42 -64 -79
-64 -81 0 -3 33 -5 73 -5 l74 0 18 40 c10 22 24 45 32 52 8 6 40 55 70 107 31
53 66 108 78 123 13 14 39 56 59 92 20 36 41 66 47 66 8 0 150 -71 243 -122
37 -20 244 -90 332 -113 71 -17 150 -20 159 -4 4 6 4 26 1 44 -11 59 -44 77
-296 166 -30 11 -77 31 -105 44 -27 14 -74 33 -104 44 -29 10 -84 38 -122 62
l-68 44 -1 55 c-1 57 -13 127 -51 293 -19 80 -26 97 -41 97 -10 0 -21 -7 -25
-16z"/>
<path d="M1676 1600 c-27 -16 -84 -36 -125 -46 -42 -9 -130 -34 -196 -56 -91
-29 -147 -41 -230 -48 -115 -10 -145 -7 -145 14 0 14 -41 56 -54 56 -19 0 2
-100 30 -143 36 -57 57 -67 147 -67 143 1 306 34 412 83 28 13 77 35 109 48
63 26 150 96 159 128 6 25 -19 61 -41 60 -9 0 -39 -13 -66 -29z"/>
<path d="M3895 1598 c-50 -27 -95 -117 -95 -189 0 -42 5 -55 36 -88 41 -46
107 -81 153 -81 44 0 108 35 125 69 28 54 38 115 27 158 -13 49 -63 114 -99
130 -34 15 -121 16 -147 1z m131 -107 c14 -22 28 -58 31 -80 5 -33 1 -44 -20
-65 -36 -36 -63 -33 -108 13 -34 33 -39 45 -39 82 0 52 7 65 40 78 48 19 68
13 96 -28z"/>
<path d="M595 1493 c-77 -63 -117 -135 -119 -211 l-1 -57 32 -3 c31 -3 32 -2
27 26 -8 41 20 96 78 155 42 42 52 47 91 47 35 0 50 -6 81 -35 37 -34 38 -36
31 -82 -3 -27 -15 -63 -25 -80 l-19 -33 49 0 49 0 11 42 c19 68 -7 153 -65
210 -25 25 -119 68 -148 68 -7 0 -39 -21 -72 -47z"/>
</g>
</svg>
